{
    "asset" : {
        "generator" : "Khronos glTF Blender I/O v1.3.48",
        "version" : "2.0"
    },
    "scene" : 0,
    "scenes" : [
        {
            "name" : "Scene",
            "nodes" : [
                0,
                1,
                2,
                3,
                4
            ]
        }
    ],
    "nodes" : [
        {
            "name" : "Light",
            "rotation" : [
                0.16907575726509094,
                0.7558803558349609,
                -0.27217137813568115,
                0.570947527885437
            ],
            "translation" : [
                2.354626178741455,
                4.505302906036377,
                -5.160727024078369
            ]
        },
        {
            "name" : "Camera",
            "rotation" : [
                0.483536034822464,
                0.33687159419059753,
                -0.20870360732078552,
                0.7804827094078064
            ],
            "translation" : [
                5.637272357940674,
                3.5597500801086426,
                2.7705178260803223
            ]
        },
        {
            "name" : "Tensile strength v1",
            "rotation" : [
                0.7071068286895752,
                0,
                0,
                0.7071067094802856
            ],
            "scale" : [
                0.009999999776482582,
                0.009999999776482582,
                0.009999999776482582
            ],
            "translation" : [
                0.3704566955566406,
                -0.6181049346923828,
                -0.8914774060249329
            ]
        },
        {
            "mesh" : 0,
            "name" : "TensileStrengthTop",
            "rotation" : [
                0.7071068286895752,
                0,
                0,
                0.7071067094802856
            ],
            "scale" : [
                0.009999999776482582,
                0.009999999776482582,
                0.009999999776482582
            ]
        },
        {
            "mesh" : 1,
            "name" : "TensileStrengthBottom",
            "rotation" : [
                0.7071068286895752,
                0,
                0,
                0.7071067094802856
            ],
            "scale" : [
                0.009999999776482582,
                0.009999999776482582,
                0.009999999776482582
            ],
            "translation" : [
                -0.00011050393368350342,
                -0.0013197371736168861,
                0.001759869046509266
            ]
        }
    ],
    "materials" : [
        {
            "doubleSided" : true,
            "emissiveFactor" : [
                0,
                0,
                0
            ],
            "name" : "Steel_-_Satin",
            "pbrMetallicRoughness" : {
                "baseColorFactor" : [
                    0.800000011920929,
                    0.800000011920929,
                    0.800000011920929,
                    1
                ],
                "metallicFactor" : 0,
                "roughnessFactor" : 0.5
            }
        }
    ],
    "meshes" : [
        {
            "name" : "Tensile strength v1.001",
            "primitives" : [
                {
                    "attributes" : {
                        "POSITION" : 0,
                        "NORMAL" : 1,
                        "TEXCOORD_0" : 2
                    },
                    "indices" : 3,
                    "material" : 0
                }
            ]
        },
        {
            "name" : "Tensile strength v1.002",
            "primitives" : [
                {
                    "attributes" : {
                        "POSITION" : 4,
                        "NORMAL" : 5,
                        "TEXCOORD_0" : 6
                    },
                    "indices" : 7,
                    "material" : 0
                }
            ]
        }
    ],
    "accessors" : [
        {
            "bufferView" : 0,
            "componentType" : 5126,
            "count" : 1080,
            "max" : [
                24.288902282714844,
                83.2428970336914,
                -17.538455963134766
            ],
            "min" : [
                -21.204330444335938,
                -82.35710906982422,
                -57.538455963134766
            ],
            "type" : "VEC3"
        },
        {
            "bufferView" : 1,
            "componentType" : 5126,
            "count" : 1080,
            "type" : "VEC3"
        },
        {
            "bufferView" : 2,
            "componentType" : 5126,
            "count" : 1080,
            "type" : "VEC2"
        },
        {
            "bufferView" : 3,
            "componentType" : 5123,
            "count" : 2268,
            "type" : "SCALAR"
        },
        {
            "bufferView" : 4,
            "componentType" : 5126,
            "count" : 176,
            "max" : [
                -0.7043304443359375,
                69.88247680664062,
                41.21675491333008
            ],
            "min" : [
                -1.2043304443359375,
                -68.11752319335938,
                15.904254913330078
            ],
            "type" : "VEC3"
        },
        {
            "bufferView" : 5,
            "componentType" : 5126,
            "count" : 176,
            "type" : "VEC3"
        },
        {
            "bufferView" : 6,
            "componentType" : 5126,
            "count" : 176,
            "type" : "VEC2"
        },
        {
            "bufferView" : 7,
            "componentType" : 5123,
            "count" : 396,
            "type" : "SCALAR"
        }
    ],
    "bufferViews" : [
        {
            "buffer" : 0,
            "byteLength" : 12960,
            "byteOffset" : 0
        },
        {
            "buffer" : 0,
            "byteLength" : 12960,
            "byteOffset" : 12960
        },
        {
            "buffer" : 0,
            "byteLength" : 8640,
            "byteOffset" : 25920
        },
        {
            "buffer" : 0,
            "byteLength" : 4536,
            "byteOffset" : 34560
        },
        {
            "buffer" : 0,
            "byteLength" : 2112,
            "byteOffset" : 39096
        },
        {
            "buffer" : 0,
            "byteLength" : 2112,
            "byteOffset" : 41208
        },
        {
            "buffer" : 0,
            "byteLength" : 1408,
            "byteOffset" : 43320
        },
        {
            "buffer" : 0,
            "byteLength" : 792,
            "byteOffset" : 44728
        }
    ],
    "buffers" : [
        {
            "byteLength" : 45520,
            "uri" : "data:application/octet-stream;base64,"
        }
    ]
}
